<svg width="25" height="25" viewBox="0 0 25 25" fill="none" xmlns="http://www.w3.org/2000/svg">
<g clip-path="url(#clip0_223_82)">
<path d="M4.69999 25C4.59615 24.9983 4.49387 24.9744 4.39999 24.93C4.26948 24.8631 4.16178 24.759 4.09056 24.6308C4.01934 24.5026 3.98782 24.3561 3.99999 24.21V1C3.99999 0.734784 4.10535 0.48043 4.29288 0.292893C4.48042 0.105357 4.73477 0 4.99999 0L20 0C20.2652 0 20.5196 0.105357 20.7071 0.292893C20.8946 0.48043 21 0.734784 21 1V24.22C21.0122 24.3661 20.9806 24.5126 20.9094 24.6408C20.8382 24.769 20.7305 24.8731 20.6 24.94C20.4702 24.999 20.3259 25.0181 20.1853 24.9949C20.0446 24.9718 19.914 24.9074 19.81 24.81L12.63 20.56H12.57C12.5499 20.5495 12.5276 20.544 12.505 20.544C12.4823 20.544 12.46 20.5495 12.44 20.56L5.13999 24.89C5.01092 24.9775 4.85505 25.0165 4.69999 25V25ZM4.99999 1V23.77L11.87 19.7C12.0576 19.5642 12.2834 19.4911 12.515 19.4911C12.7466 19.4911 12.9724 19.5642 13.16 19.7L20 23.7V1H4.99999Z" fill="#00B4D8"/>
</g>
<defs>
<clipPath id="clip0_223_82">
<rect width="25" height="25" fill="white"/>
</clipPath>
</defs>
</svg>
