<svg width="32" height="32" viewBox="0 0 32 32" fill="none" xmlns="http://www.w3.org/2000/svg">
<path d="M28 13H29C29.6 13 30 12.6 30 12C30 11.4 29.6 11 29 11H26.2L25 8C24.2 6.2 22.4 5 20.4 5H11.7C9.6 5 7.8 6.2 7 8L5.7 11H3C2.4 11 2 11.4 2 12C2 12.6 2.4 13 3 13H4C2.8 13.9 2 15.4 2 17V21C2 21.9 2.4 22.7 3 23.2V25C3 26.7 4.3 28 6 28H8C9.7 28 11 26.7 11 25V24H21V25C21 26.7 22.3 28 24 28H26C27.7 28 29 26.7 29 25V23.2C29.6 22.7 30 21.9 30 21V17C30 15.4 29.2 13.9 28 13ZM27 18C27 18.6 26.6 19 26 19H23C22.4 19 22 18.6 22 18C22 17.4 22.4 17 23 17H26C26.6 17 27 17.4 27 18ZM6 17H9C9.6 17 10 17.4 10 18C10 18.6 9.6 19 9 19H6C5.4 19 5 18.6 5 18C5 17.4 5.4 17 6 17ZM10.4 22L11.6 19.7C12.1 18.7 13.1 18 14.3 18H17.8C18.9 18 20 18.6 20.5 19.7L21.7 22H10.4ZM8.9 8.8C9.4 7.7 10.4 7 11.6 7H20.3C21.5 7 22.6 7.7 23.1 8.8L24.5 12H7.5L8.9 8.8Z" fill="#00B4D8"/>
</svg>
