<svg width="64" height="64" viewBox="0 0 64 64" fill="none" xmlns="http://www.w3.org/2000/svg">
<path d="M59.59 50.4199H51C48.72 40.4199 34.55 40.4199 32.27 50.4199H4.40997C3.87954 50.4199 3.37083 50.6306 2.99576 51.0057C2.62069 51.3808 2.40997 51.8895 2.40997 52.4199C2.40997 52.9504 2.62069 53.4591 2.99576 53.8341C3.37083 54.2092 3.87954 54.4199 4.40997 54.4199H32.3C34.59 64.4199 48.76 64.4199 51.03 54.4199H59.59C60.1204 54.4199 60.6291 54.2092 61.0042 53.8341C61.3793 53.4591 61.59 52.9504 61.59 52.4199C61.59 51.8895 61.3793 51.3808 61.0042 51.0057C60.6291 50.6306 60.1204 50.4199 59.59 50.4199ZM41.67 57.9999C34.29 57.7399 34.29 47.0999 41.67 46.8399C49.05 47.0999 49.05 57.7399 41.67 57.9999Z" fill="#00B4D8"/>
<path d="M59.59 30H28.52C26.24 20 12.07 20 9.78997 30H4.40997C3.87954 30 3.37083 30.2107 2.99576 30.5858C2.62069 30.9609 2.40997 31.4696 2.40997 32C2.40997 32.5304 2.62069 33.0391 2.99576 33.4142C3.37083 33.7893 3.87954 34 4.40997 34H9.78997C12.07 44 26.24 44 28.52 34H59.59C60.1204 34 60.6291 33.7893 61.0042 33.4142C61.3793 33.0391 61.59 32.5304 61.59 32C61.59 31.4696 61.3793 30.9609 61.0042 30.5858C60.6291 30.2107 60.1204 30 59.59 30ZM19.16 37.58C11.78 37.34 11.79 26.65 19.16 26.42C26.53 26.66 26.53 37.35 19.16 37.58Z" fill="#00B4D8"/>
<path d="M4.40997 13.5801H22.63C24.92 23.5801 39.09 23.5801 41.37 13.5801H59.59C60.1204 13.5801 60.6291 13.3694 61.0042 12.9943C61.3793 12.6192 61.59 12.1105 61.59 11.5801C61.59 11.0496 61.3793 10.5409 61.0042 10.1659C60.6291 9.79079 60.1204 9.58008 59.59 9.58008H41.37C39.08 -0.419922 24.91 -0.419922 22.63 9.58008H4.40997C3.87954 9.58008 3.37083 9.79079 2.99576 10.1659C2.62069 10.5409 2.40997 11.0496 2.40997 11.5801C2.40997 12.1105 2.62069 12.6192 2.99576 12.9943C3.37083 13.3694 3.87954 13.5801 4.40997 13.5801ZM32 6.00008C39.38 6.26008 39.38 16.9001 32 17.1601C24.62 16.9001 24.62 6.26008 32 6.00008Z" fill="#00B4D8"/>
</svg>
