<svg width="32" height="32" viewBox="0 0 32 32" fill="none" xmlns="http://www.w3.org/2000/svg">
<g clip-path="url(#clip0_229_124)">
<path d="M13 24.0002C12.4 24.0002 12 23.6002 12 23.0002V11.0002V1.0002C12 0.600195 12.2 0.300195 12.5 0.100195C12.8 -0.0998047 13.2 -0.0998047 13.5 0.100195L22.5 5.1002C22.8 5.3002 23 5.6002 23 6.0002C23 6.4002 22.8 6.7002 22.5 6.9002L14 11.6002V23.0002C14 23.6002 13.6 24.0002 13 24.0002Z" fill="#5CE5FF"/>
<path d="M16 16V21.4C17.3 21.8 18 22.5 18 23C18 23.8 16.1 25 13 25C9.9 25 8 23.8 8 23C8 22.2 9.9 21 13 21C13.3 21 13.7 21 14 21V16C6 16.5 0 19.9 0 24C0 28.5 7 32 16 32C25 32 32 28.5 32 24C32 19.5 25 16 16 16Z" fill="#5CE5FF"/>
</g>
<defs>
<clipPath id="clip0_229_124">
<rect width="32" height="32" fill="white"/>
</clipPath>
</defs>
</svg>
