<svg width="512" height="512" viewBox="0 0 512 512" fill="none" xmlns="http://www.w3.org/2000/svg">
<g clip-path="url(#clip0_223_40)">
<path d="M506.555 208.064L263.859 30.3669C259.179 26.9409 252.821 26.9409 248.143 30.3669L5.44509 208.064C-0.48291 212.405 -1.77091 220.729 2.57009 226.657C6.91109 232.585 15.2361 233.871 21.1631 229.532L256 57.5879L490.837 229.531C493.205 231.266 495.957 232.101 498.685 232.101C502.781 232.101 506.823 230.216 509.429 226.656C513.771 220.729 512.483 212.405 506.555 208.064Z" fill="#00B4D8"/>
<path d="M442.246 232.543C434.9 232.543 428.943 238.499 428.943 245.846V457.595H322.521V342.009C322.521 305.329 292.679 275.489 256.001 275.489C219.323 275.489 189.481 305.331 189.481 342.009V457.596H83.0579V245.847C83.0579 238.5 77.1009 232.544 69.7549 232.544C62.4089 232.544 56.4519 238.5 56.4519 245.847V470.9C56.4519 478.247 62.4089 484.203 69.7549 484.203H202.784C209.78 484.203 215.505 478.798 216.035 471.936C216.067 471.625 216.087 471.285 216.087 470.9V342.01C216.087 320.001 233.992 302.096 256.001 302.096C278.01 302.096 295.915 320.002 295.915 342.01V470.9C295.915 471.283 295.935 471.617 295.967 471.924C296.491 478.791 302.218 484.203 309.218 484.203H442.247C449.594 484.203 455.55 478.247 455.55 470.9V245.847C455.549 238.499 449.593 232.543 442.246 232.543Z" fill="#00B4D8"/>
</g>
<defs>
<clipPath id="clip0_223_40">
<rect width="512" height="512" fill="white"/>
</clipPath>
</defs>
</svg>
