<svg width="492" height="492" viewBox="0 0 492 492" fill="none" xmlns="http://www.w3.org/2000/svg">
<g clip-path="url(#clip0_223_62)">
<path d="M245.791 0C153.799 0 78.957 74.841 78.957 166.833C78.957 203.8 100.721 260.02 147.45 343.759C179.337 400.897 211.077 449.159 212.416 451.192L235.357 485.965C237.67 489.472 241.589 491.582 245.791 491.582C249.993 491.582 253.912 489.472 256.225 485.965L279.165 451.194C280.491 449.184 312 401.339 344.132 343.759C390.861 260.024 412.625 203.804 412.625 166.833C412.625 74.841 337.783 0 245.791 0ZM322.302 331.576C290.617 388.351 259.606 435.445 258.299 437.424L245.791 456.383L233.287 437.429C231.973 435.434 200.724 387.918 169.28 331.576C125.935 253.9 103.957 198.472 103.957 166.833C103.957 88.626 167.583 25 245.791 25C323.999 25 387.625 88.626 387.625 166.833C387.625 198.476 365.647 253.902 322.302 331.576Z" fill="#00B4D8"/>
<path d="M245.791 73.291C194.786 73.291 153.291 114.787 153.291 165.791C153.291 216.795 194.786 258.291 245.791 258.291C296.796 258.291 338.291 216.795 338.291 165.791C338.291 114.787 296.796 73.291 245.791 73.291ZM245.791 233.291C208.571 233.291 178.291 203.011 178.291 165.791C178.291 128.571 208.571 98.291 245.791 98.291C283.012 98.291 313.291 128.571 313.291 165.791C313.291 203.011 283.012 233.291 245.791 233.291Z" fill="#00B4D8"/>
</g>
<defs>
<clipPath id="clip0_223_62">
<rect width="491.582" height="491.582" fill="white"/>
</clipPath>
</defs>
</svg>
