<svg width="64" height="64" viewBox="0 0 64 64" fill="none" xmlns="http://www.w3.org/2000/svg">
<path d="M38.49 32.0001C48.05 25.6701 43.63 10.5501 32 10.5001C20.37 10.4501 16 25.6701 25.51 32.0001C21.2928 33.3801 17.6193 36.0569 15.0136 39.6485C12.408 43.24 11.0033 47.5629 11 52.0001C11 52.3979 11.158 52.7794 11.4393 53.0607C11.7206 53.342 12.1022 53.5001 12.5 53.5001C12.8978 53.5001 13.2794 53.342 13.5607 53.0607C13.842 52.7794 14 52.3979 14 52.0001C14 47.2262 15.8964 42.6478 19.2721 39.2722C22.6477 35.8965 27.2261 34.0001 32 34.0001C36.7739 34.0001 41.3523 35.8965 44.7279 39.2722C48.1036 42.6478 50 47.2262 50 52.0001C50 52.3979 50.158 52.7794 50.4393 53.0607C50.7206 53.342 51.1022 53.5001 51.5 53.5001C51.8978 53.5001 52.2794 53.342 52.5607 53.0607C52.842 52.7794 53 52.3979 53 52.0001C52.9967 47.5629 51.592 43.24 48.9864 39.6485C46.3807 36.0569 42.7072 33.3801 38.49 32.0001ZM23.26 22.2401C23.2626 19.9229 24.1843 17.7014 25.8228 16.0629C27.4613 14.4244 29.6828 13.5027 32 13.5001C43.58 13.9601 43.58 30.5001 32 30.9701C29.6845 30.9674 27.4645 30.0471 25.8263 28.4108C24.1881 26.7745 23.2653 24.5555 23.26 22.2401Z" fill="#00B4D8"/>
</svg>
