<svg width="64" height="64" viewBox="0 0 64 64" fill="none" xmlns="http://www.w3.org/2000/svg">
<path d="M53.08 51.0002L43.24 41.1602C53.48 29.3402 44.87 10.4602 29.09 10.5202C24.1577 10.5255 19.4287 12.4865 15.9401 15.9732C12.4515 19.46 10.4879 24.1878 10.48 29.1202C10.42 44.9102 29.3 53.5202 41.12 43.2802L51 53.0802C51.2885 53.2724 51.6347 53.3587 51.9797 53.3245C52.3247 53.2903 52.6472 53.1376 52.8923 52.8925C53.1375 52.6474 53.2901 52.3249 53.3244 51.9799C53.3586 51.6349 53.2722 51.2887 53.08 51.0002V51.0002ZM13.48 29.0802C13.4853 24.9427 15.1319 20.9763 18.0585 18.0516C20.9851 15.1269 24.9525 13.4828 29.09 13.4802C49.78 14.3402 49.78 43.8302 29.09 44.6902C24.9508 44.6875 20.9819 43.042 18.055 40.1152C15.1281 37.1883 13.4827 33.2194 13.48 29.0802V29.0802Z" fill="#00B4D8"/>
</svg>
